<svg xmlns="http://www.w3.org/2000/svg" width="15" height="16" fill="none"><g clip-path="url(#architect-icon)"><path fill="#9F662D" d="M14.645 12.902s-4.651-2.096-5.294-3.227c-.084-.148-.156-.521-.066-.605.643-.585 1.082-1.478 1.16-2.494.36-.141.492-.405.492-.79 0-.322-.06-.663-.324-.836V2.84c0-1.568-1.196-2.847-2.662-2.847h-.896c-1.466 0-2.662 1.279-2.662 2.847V4.95c-.264.167-.312.443-.312.765 0 .38.12.713.48.861.078 1.01.511 1.89 1.142 2.475.102.097.084.495 0 .63-.63 1.06-5.348 3.214-5.348 3.214-.193 0-.355.174-.355.38v2.333c0 .206.162.38.355.38h14.29c.193 0 .355-.174.355-.38v-2.334c0-.205-.162-.379-.355-.379v.007Z"/></g><defs><clipPath id="architect-icon"><path fill="#fff" d="M0 0h15v16H0z"/></clipPath></defs></svg>