<svg xmlns="http://www.w3.org/2000/svg" width="15" height="16" fill="none"><g fill="#9F662D" clip-path="url(#clip0_4952_164)"><path d="M10.965 4.43v1.063c.201-.032.408-.054.615-.054.31 0 .61.038.9.102V4.045c0-.727-.574-1.32-1.277-1.32H9.537v1.486h1.215c.12 0 .213.096.213.219ZM10.965 13.425v.871a.213.213 0 0 1-.213.219H2.728a.213.213 0 0 1-.212-.219V4.43c0-.123.093-.22.212-.22h1.21V2.726H2.274c-.704 0-1.278.593-1.278 1.32v10.64c0 .727.574 1.32 1.278 1.32h8.93c.703 0 1.277-.593 1.277-1.32v-1.303c-.29.065-.59.102-.9.102-.212 0-.414-.021-.615-.053v-.006Z"/><path d="M8.921 2.32H7.643V1.218A.213.213 0 0 0 7.431 1H6.013a.213.213 0 0 0-.212.219v1.095H4.523v2.869h4.393V2.319h.005ZM3.396 6.673c0 .422.33.77.745.77a.754.754 0 0 0 .745-.77.754.754 0 0 0-.745-.77.754.754 0 0 0-.745.77ZM4.14 8.596a.758.758 0 0 0-.744.77c0 .427.33.769.745.769a.754.754 0 0 0 .745-.77.754.754 0 0 0-.745-.769ZM4.14 12.779a.757.757 0 0 0 .746-.77.757.757 0 0 0-.745-.769.757.757 0 0 0-.745.77c0 .424.333.769.745.769ZM11.596 5.941c-1.878 0-3.405 1.576-3.405 3.515 0 1.94 1.527 3.515 3.405 3.515S15 11.395 15 9.456s-1.526-3.515-3.404-3.515Zm-1.392 5.62c-.15.048-.124-.064-.119-.15l.088-1.287 1.252.961s-1.045.412-1.226.476h.005Zm1.392-.716-1.252-.961 1.195-1.656 1.273.934-1.216 1.683Zm1.738-2.404-.367.508-1.252-.962.367-.507a.266.266 0 0 1 .378-.059l.817.63c.12.091.145.267.057.39Z"/></g><defs><clipPath id="clip0_4952_164"><path fill="#fff" d="M1 1h14v15H1z"/></clipPath></defs></svg>