<svg xmlns="http://www.w3.org/2000/svg" width="284" height="44" fill="none" viewBox="0 0 284 44"><path class="nscd906-logo-text" fill="#000" d="M41.158.809c1.035 0 1.59.489 1.61 1.327v19.182c0 .574.273.753.94.753h11.738c.564 0 1.063.14.527 1.562-.706 1.883-1.788 4.283-1.788 4.283h-19.05c-1.224 0-1.591-1.102-1.591-2.325V3.538c0-1.816.404-2.71 2.748-2.73h4.866ZM70.59 11.811h4.066V.81h9.676v27.125H74.59V18.1h-6.748a57.215 57.215 0 0 1 2.748-6.288ZM141.285.827v10.994h13.77c1.101 0 1.487 1.167 1.487 1.957 0 .791-.085 14.119-.085 14.119H148.4l.085-9.864h-12.979c-1.346 0-2.626-.942-2.655-2.08V3.18c0-1.11.942-2.362 1.883-2.362l6.551.01ZM160.768.79l23.078-.01-3.294 6.457h-5.289l.122 20.697h-9.61V7.246l-8.348-.018L160.768.79ZM198.012.761h10.287c1.139 0 2.156.678 2.156 5.14v22.033h-9.158V7.228h-6.052L198.012.76Z"/><path class="nscd906-logo-text" fill="#000" fill-rule="evenodd" d="M247.849.818c2.758 8.923 8.725 27.097 8.725 27.097h-8.414l-1.506-4.066h-8.716l-1.044 4.057h-8.716l6.268-20.707h-2.588s2.005-4.019 3.191-6.428c0 .019 10.57.056 12.8.047Zm-9.675 22.25c1.223-1.666 1.666-2.71 3.134-4.96h3.878l-2.165-10.485h-1.431s-2.212 10.918-3.416 15.445Z" clip-rule="evenodd"/><path class="nscd906-logo-text" fill="#000" d="M101.763.809h11.059a1.562 1.562 0 0 1 1.412 1.61v13.176c0 .744-.621.941-1.289.941h-4.396c2.071 3.238 4.829 8.274 7.022 11.38h-9.893c-1.76-2.824-5.139-7.907-6.936-10.72a131.016 131.016 0 0 1 2.823-6.27h3.351V7.238h-6.362L101.763.81ZM45.78.809H56.32L53.62 7.228l-11.342.01L45.78.807ZM157.954.78l-3.699 6.448-13.46-.029L145.228.78h12.726ZM135.694 22.099h13.252s-1.986 3.379-3.435 5.826h-14.486c1.6-2.07 2.391-2.824 4.706-5.845l-.037.019ZM223.302.78c1.073 0 2.278.63 2.278 5.233v21.921h-9.224V7.228h-6.043s2.325-5.902 2.617-6.448c.038 0 8.132.02 10.372 0ZM269.93.8h10.975c.819 0 2.193.526 2.193 4.705v22.401h-9.506L273.488 7.2h-6.259s2.4-5.882 2.701-6.438V.8ZM68.322.809v27.125h-9.667V7.229H56.35s1.78-3.982 2.777-6.42h9.196Z"/><path class="nscd906-logo-text" fill="#000" d="M98.855.809v27.135h-9.676V7.237H86.9s1.788-3.972 2.824-6.41l9.13-.018ZM128.644.809v27.135h-9.666V7.237h-2.25s1.779-3.981 2.777-6.419l9.139-.01ZM195.584.79v27.144h-9.648V7.229h-2.259s1.779-3.982 2.777-6.42l9.13-.018ZM267.747.809v27.135h-9.667V7.237h-2.249s1.779-3.972 2.776-6.419l9.14-.01Z"/><path class="nscd906-logo-text" fill="#231F20" d="M118.987 35.502h3.662a2.616 2.616 0 0 1 1.628.47 1.804 1.804 0 0 1 .602 1.459 1.696 1.696 0 0 1-1.073 1.666 1.882 1.882 0 0 1 1.431 2.005 2.027 2.027 0 0 1-.649 1.544 3.07 3.07 0 0 1-2.137.63h-3.464v-7.774Zm1.318 3.266h2.146c.293.012.58-.089.8-.282a1.082 1.082 0 0 0 .311-.8.945.945 0 0 0-.674-1.016.942.942 0 0 0-.437-.02h-2.099l-.047 2.118Zm0 3.426h2.334a1.13 1.13 0 0 0 1.271-1.242c0-.791-.433-1.196-1.271-1.205h-2.287l-.047 2.447ZM129.397 35.502h1.308v4.546a7.446 7.446 0 0 0 0 .79c.032.252.105.497.217.725.117.228.301.416.527.537a2.428 2.428 0 0 0 2.005 0c.226-.121.41-.309.527-.537.115-.226.189-.472.216-.725v-5.336h1.318v4.988a2.907 2.907 0 0 1-.847 2.24c-.626.53-1.431.8-2.25.753a3.163 3.163 0 0 1-2.24-.753 2.826 2.826 0 0 1-.856-2.23l.075-4.998ZM140.165 35.502h1.327v7.793h-1.327v-7.793ZM146.01 35.502h1.317v6.588h3.84v1.167h-5.157v-7.755ZM155.073 35.502h3.135a2.98 2.98 0 0 1 2.541 1.139 5.266 5.266 0 0 1 0 5.515 2.955 2.955 0 0 1-2.541 1.139h-3.135v-7.793Zm1.328 6.692h1.298a2.32 2.32 0 0 0 2.043-.81c.189-.284.317-.604.376-.94a3.14 3.14 0 0 0 .085-.537v-.556a3.47 3.47 0 0 0-.47-1.986 1.722 1.722 0 0 0-.772-.593 3.297 3.297 0 0 0-1.271-.207h-1.289v5.629ZM165.766 35.502h1.317v7.793h-1.317v-7.793ZM171.554 35.502h1.393l3.445 5.75v-5.75h1.252v7.793h-1.393l-3.417-5.704v5.732h-1.28v-7.821ZM188.882 43.295h-.847l-.198-.941a2.827 2.827 0 0 1-2.277 1.101 3.295 3.295 0 0 1-2.655-1.158 4.801 4.801 0 0 1 0-5.76 3.265 3.265 0 0 1 2.655-1.195 3.518 3.518 0 0 1 2.164.659 2.83 2.83 0 0 1 1.073 2.005h-1.289a1.677 1.677 0 0 0-.659-1.177 2.24 2.24 0 0 0-1.289-.386 1.887 1.887 0 0 0-1.742.941 3.625 3.625 0 0 0-.555 2.052 3.677 3.677 0 0 0 .555 2.052 1.891 1.891 0 0 0 1.742.941 1.948 1.948 0 0 0 2.117-2.136h-2.014v-1.036h3.219v4.038ZM200.073 40.707c-.022.243.02.488.121.71.1.223.256.416.453.56a2.11 2.11 0 0 0 1.356.396c.445.04.89-.091 1.242-.367a1.073 1.073 0 0 0 .358-.81 1.098 1.098 0 0 0-.179-.668.943.943 0 0 0-.443-.292 22.938 22.938 0 0 0-2.259-.64 2.428 2.428 0 0 1-1.317-.838 1.883 1.883 0 0 1-.358-1.148 2.021 2.021 0 0 1 .885-1.75 3.358 3.358 0 0 1 1.882-.537 3.304 3.304 0 0 1 2.052.621 2.251 2.251 0 0 1 .847 1.883h-1.327a1.302 1.302 0 0 0-.499-1.063 1.88 1.88 0 0 0-1.129-.312 2.629 2.629 0 0 0-.461 0 1.52 1.52 0 0 0-.452.16.944.944 0 0 0-.339.311.845.845 0 0 0-.132.499.85.85 0 0 0 .254.65c.182.168.402.29.64.357.593.15 1.327.348 2.193.602.452.13.845.413 1.111.8.232.352.357.765.358 1.186a2.126 2.126 0 0 1-.942 1.883 3.848 3.848 0 0 1-2.08.565 3.536 3.536 0 0 1-2.211-.678 2.571 2.571 0 0 1-.942-2.1l1.318.02ZM209.099 35.502h1.318v7.793h-1.318v-7.793ZM214.888 35.502h1.393l3.454 5.75v-5.75h1.252v7.793h-1.393l-3.426-5.704v5.732h-1.252l-.028-7.821ZM230.729 37.977a2.151 2.151 0 0 0-.612-1.11 1.884 1.884 0 0 0-1.28-.443 1.957 1.957 0 0 0-1.751.941 3.762 3.762 0 0 0-.546 2.052 3.827 3.827 0 0 0 .546 2.052 1.936 1.936 0 0 0 1.751.941 1.675 1.675 0 0 0 1.374-.602c.331-.41.525-.914.555-1.44h1.29a3.419 3.419 0 0 1-.942 2.268 3.028 3.028 0 0 1-2.258.885 3.297 3.297 0 0 1-2.674-1.224 4.801 4.801 0 0 1 0-5.76 3.265 3.265 0 0 1 2.655-1.195 3.4 3.4 0 0 1 2.193.696 2.83 2.83 0 0 1 1.016 1.958l-1.317-.019ZM236.319 35.502h5.45v1.148h-4.113v2.052h3.765v1.11h-3.765V42.1h4.188v1.167h-5.506l-.019-7.765ZM251.595 36.923a3.06 3.06 0 0 0 1.393-.292 1.35 1.35 0 0 0 .753-.941h.941v7.633h-1.317v-5.421h-1.817l.047-.98ZM262.843 43.455a2.758 2.758 0 0 1-1.883-.65 2.248 2.248 0 0 1-.753-1.76 1.811 1.811 0 0 1 1.403-1.882 1.581 1.581 0 0 1-1.017-1.572c0-1.374.781-2.061 2.297-2.09 1.515-.027 2.268.716 2.287 2.09a1.57 1.57 0 0 1-1.045 1.572 1.786 1.786 0 0 1 1.365 1.883c.014.33-.046.659-.175.963a2.222 2.222 0 0 1-.569.797 2.822 2.822 0 0 1-1.91.649Zm0-.941a1.404 1.404 0 0 0 1.016-.386 1.402 1.402 0 0 0 .396-1.035 1.332 1.332 0 0 0-.396-.998 1.467 1.467 0 0 0-1.016-.348 1.392 1.392 0 0 0-.988.348 1.3 1.3 0 0 0-.415.998c-.007.192.026.383.097.562.071.178.179.34.318.473a1.325 1.325 0 0 0 .988.348v.038Zm0-5.996c-.299-.007-.588.101-.81.301a1.12 1.12 0 0 0-.338.876.993.993 0 0 0 .329.819 1.28 1.28 0 0 0 1.647 0 1.093 1.093 0 0 0 .32-.82 1.087 1.087 0 0 0-.303-.852 1.08 1.08 0 0 0-.845-.324ZM270.787 41.356c.016.282.133.55.329.753a.937.937 0 0 0 .753.292c.291.014.575-.088.791-.283a1.49 1.49 0 0 0 .442-.658c.105-.277.181-.564.226-.857 0-.301.066-.574.075-.828a1.734 1.734 0 0 1-1.6.941 2.113 2.113 0 0 1-1.675-.715 2.937 2.937 0 0 1 0-3.765 2.42 2.42 0 0 1 1.882-.744 2.167 2.167 0 0 1 2.08 1.158 6.75 6.75 0 0 1 .518 2.824c.01.92-.2 1.83-.612 2.654a2.358 2.358 0 0 1-2.183 1.299 2.202 2.202 0 0 1-1.525-.593 2.099 2.099 0 0 1-.706-1.487l1.205.01Zm1.148-4.838a1.115 1.115 0 0 0-.941.461 2.02 2.02 0 0 0 0 2.212 1.074 1.074 0 0 0 .941.5 1.196 1.196 0 0 0 1.026-.49c.222-.33.334-.723.32-1.12a1.83 1.83 0 0 0-.32-1.092 1.227 1.227 0 0 0-1.026-.452v-.019ZM283.183 41.488h-.942v1.807h-1.139v-1.807h-3.19v-1.233l3.181-4.546h1.148v4.8h.942v.979Zm-4.339-.941h2.249v-3.408l-2.249 3.408Z"/><path fill="#9F662D" d="M27.934.827H.818v27.117h27.116V.827Z"/></svg>