<svg xmlns="http://www.w3.org/2000/svg" width="19" height="16" fill="none"><g fill="#9F662D" clip-path="url(#clip0_4638_193)"><path d="M10.44 1.508C9.44 1.345 8.6 1.29 7.968 2.975 7.34 4.66 6.761 5.637 6.761 5.637s-.366 1.14.37 1.574c.733.435 1.84-.653 2.048-1.303 0 0 .313-1.248 1.049-1.084.733.163 1.792 1.518 1.792 1.518l2.777 3.149 2.572-3.04-3.675-3.855s-2.26-.924-3.254-1.084v-.004ZM5.574 9.682a.943.943 0 0 0 .007-1.3.87.87 0 0 0-1.254.007l-1.15 1.189a.94.94 0 0 0-.007 1.3.867.867 0 0 0 1.255-.007l1.15-1.189ZM6.997 11.26a.946.946 0 0 0 .007-1.3.864.864 0 0 0-1.255.007l-1.153 1.192a.94.94 0 0 0-.007 1.3.87.87 0 0 0 1.258-.007L7 11.26h-.003ZM8.422 12.792a.943.943 0 0 0 .01-1.3.868.868 0 0 0-1.257.011l-1.15 1.189a.94.94 0 0 0-.007 1.3.868.868 0 0 0 1.258-.008l1.15-1.192h-.004ZM8.61 12.987l-1.15 1.188a.935.935 0 0 0-.006 1.297.868.868 0 0 0 1.258-.007l1.15-1.192a.935.935 0 0 0 .006-1.296.867.867 0 0 0-1.254.006l-.003.004ZM3.52 8.129a.414.414 0 0 0 .293-.125.445.445 0 0 0 .006-.616L.723 4.08a.413.413 0 0 0-.595-.01.445.445 0 0 0-.01.615l3.1 3.312c.08.09.191.135.302.135V8.13ZM15.379 10.315c-.427.437-.807.462-1.029.42-.131-.104-.474-.414-.649-.566-.306-.275-.571-.515-.85-.192-.276.32.003.591.208.786.128.125.34.326.652.625.007 0 .024.025.054.056.118.132.373.462.188.653-.063.066-.208.216-.524.049a.954.954 0 0 1-.111-.073l-.81-.803c-.034-.031-.068-.07-.111-.104-.014-.014-.02-.024-.027-.028-.165-.132-.387-.24-.605-.007-.216.23-.132.428.03.626h-.004l.047.052c.051.055.108.111.165.174.168.166.434.434.83.834.028.038.058.208-.127.48-.269.381-.494.308-.568.284a.26.26 0 0 1-.03-.014l-.673-.712-.11-.115c-.045-.049-.075-.08-.082-.09l-.006.007c-.182-.157-.38-.24-.595-.024-.219.215-.148.417.003.615l-.007.007.091.093c.037.042.08.087.121.132.215.23.649.695.733.79.262.399.077.59.014.653-.34.35-.784.146-.834.118a.417.417 0 0 0-.565.19.442.442 0 0 0 .185.585c.175.094.444.177.743.177.343 0 .73-.111 1.066-.455.299-.31.416-.702.35-1.105.265-.066.568-.24.84-.63.175-.246.265-.486.3-.708.319.01.614-.125.867-.383.302-.312.386-.712.258-1.13.343-.062.75-.239 1.157-.66a.445.445 0 0 0 0-.615.406.406 0 0 0-.592 0l.007.008ZM18.842 3.635 15.708.188c-.255-.282-.74-.244-1.076.087l-.38.371c-.34.327-.403.824-.148 1.102l3.134 3.447c.256.282.74.247 1.076-.086l.38-.369c.34-.326.403-.823.148-1.105Z"/></g><defs><clipPath id="clip0_4638_193"><path fill="#fff" d="M0 0h19v16H0z"/></clipPath></defs></svg>