<svg xmlns="http://www.w3.org/2000/svg" width="17" height="17" fill="none"><g fill="#9F662D" clip-path="url(#industries-icon)"><path d="M16.647 15.817H.353a.348.348 0 0 0-.353.34v.837h17v-.837c0-.19-.162-.34-.353-.34ZM15.025 7.773V6.706H2.053v1.067h3.95v5.984H4.347V7.773H2.688v5.984h-.635v1.068H15.02v-1.068h-.713V7.773h.719Zm-7.357 5.984V7.773h1.658v5.984H7.668Zm4.98 0H10.99V7.773h1.658v5.984ZM.784 5.92h15.749c.844 0 .3-.513.3-.513L8.631 0 .419 5.419s-.443.502.359.502h.006Zm7.848-3.935 3.441 2.268H5.196l3.442-2.268h-.006Z"/></g><defs><clipPath id="industries-icon"><path fill="#fff" d="M0 0h17v17H0z"/></clipPath></defs></svg>