<svg xmlns="http://www.w3.org/2000/svg" width="17" height="11" fill="none"><g clip-path="url(#delivery-unit-icon)"><path fill="#9F662D" d="m16.428 5.483-3.71-4.172H9.314v3.762H8.197V0H0v9.484h.681a1.95 1.95 0 0 0 3.8 0h7.27a1.95 1.95 0 0 0 3.8 0h1.443v-3.09l-.572-.911h.006ZM2.588 9.997a.943.943 0 0 1-.945-.94c0-.52.423-.94.944-.94.521 0 .945.42.945.94 0 .518-.424.94-.945.94Zm11.075 0a.943.943 0 0 1-.944-.94c0-.52.423-.94.944-.94.52 0 .944.42.944.94 0 .518-.423.94-.944.94Zm-1.883-4.24V2.438h.383l2.948 3.317H11.78Z"/></g><defs><clipPath id="delivery-unit-icon"><path fill="#fff" d="M0 0h17v11H0z"/></clipPath></defs></svg>